<mxfile host="app.diagrams.net" modified="2024-03-04T03:48:44.540Z" agent="Mozilla/5.0 (Windows NT 10.0; Win64; x64) AppleWebKit/537.36 (KHTML, like Gecko) Chrome/122.0.0.0 Safari/537.36" etag="Z1-NuTn7C6BQJ81F9HCS" version="24.0.1" type="device">
  <diagram name="Seite-1" id="r4wHWf4LqivN3CQFZS1a">
    <mxGraphModel dx="2624" dy="2013" grid="1" gridSize="10" guides="1" tooltips="1" connect="1" arrows="1" fold="1" page="1" pageScale="1" pageWidth="1169" pageHeight="827" math="0" shadow="0">
      <root>
        <mxCell id="0" />
        <mxCell id="1" parent="0" />
        <mxCell id="tcRZOluestf5_phuFeX2-1" value=":User" style="shape=umlActor;verticalLabelPosition=bottom;verticalAlign=top;html=1;outlineConnect=0;" vertex="1" parent="1">
          <mxGeometry x="70" y="30" width="30" height="60" as="geometry" />
        </mxCell>
        <mxCell id="tcRZOluestf5_phuFeX2-2" value=":Startscreen" style="rounded=0;whiteSpace=wrap;html=1;" vertex="1" parent="1">
          <mxGeometry x="170" y="40" width="120" height="60" as="geometry" />
        </mxCell>
        <mxCell id="tcRZOluestf5_phuFeX2-3" value=":ToDoPopup" style="rounded=0;whiteSpace=wrap;html=1;" vertex="1" parent="1">
          <mxGeometry x="354" y="40" width="120" height="60" as="geometry" />
        </mxCell>
        <mxCell id="tcRZOluestf5_phuFeX2-10" value=":ToDo" style="rounded=0;whiteSpace=wrap;html=1;" vertex="1" parent="1">
          <mxGeometry x="540" y="40" width="120" height="60" as="geometry" />
        </mxCell>
        <mxCell id="tcRZOluestf5_phuFeX2-11" value=":Database" style="rounded=0;whiteSpace=wrap;html=1;" vertex="1" parent="1">
          <mxGeometry x="710" y="40" width="120" height="60" as="geometry" />
        </mxCell>
        <mxCell id="tcRZOluestf5_phuFeX2-12" value="" style="endArrow=none;dashed=1;html=1;dashPattern=1 3;strokeWidth=2;rounded=0;" edge="1" parent="1" source="tcRZOluestf5_phuFeX2-21">
          <mxGeometry width="50" height="50" relative="1" as="geometry">
            <mxPoint x="229.5" y="414" as="sourcePoint" />
            <mxPoint x="229.5" y="94" as="targetPoint" />
          </mxGeometry>
        </mxCell>
        <mxCell id="tcRZOluestf5_phuFeX2-13" value="" style="endArrow=none;dashed=1;html=1;dashPattern=1 3;strokeWidth=2;rounded=0;" edge="1" parent="1" source="tcRZOluestf5_phuFeX2-25">
          <mxGeometry width="50" height="50" relative="1" as="geometry">
            <mxPoint x="413.5" y="414" as="sourcePoint" />
            <mxPoint x="413.5" y="94" as="targetPoint" />
          </mxGeometry>
        </mxCell>
        <mxCell id="tcRZOluestf5_phuFeX2-14" value="" style="endArrow=none;dashed=1;html=1;dashPattern=1 3;strokeWidth=2;rounded=0;" edge="1" parent="1" source="tcRZOluestf5_phuFeX2-36">
          <mxGeometry width="50" height="50" relative="1" as="geometry">
            <mxPoint x="600" y="420" as="sourcePoint" />
            <mxPoint x="600" y="100" as="targetPoint" />
          </mxGeometry>
        </mxCell>
        <mxCell id="tcRZOluestf5_phuFeX2-16" value="" style="endArrow=none;dashed=1;html=1;dashPattern=1 3;strokeWidth=2;rounded=0;" edge="1" parent="1">
          <mxGeometry width="50" height="50" relative="1" as="geometry">
            <mxPoint x="770" y="510" as="sourcePoint" />
            <mxPoint x="769.5" y="94" as="targetPoint" />
          </mxGeometry>
        </mxCell>
        <mxCell id="tcRZOluestf5_phuFeX2-18" value="" style="endArrow=none;dashed=1;html=1;dashPattern=1 3;strokeWidth=2;rounded=0;" edge="1" parent="1" target="tcRZOluestf5_phuFeX2-17">
          <mxGeometry width="50" height="50" relative="1" as="geometry">
            <mxPoint x="85" y="420" as="sourcePoint" />
            <mxPoint x="54.64" y="110" as="targetPoint" />
          </mxGeometry>
        </mxCell>
        <mxCell id="tcRZOluestf5_phuFeX2-23" style="edgeStyle=orthogonalEdgeStyle;rounded=0;orthogonalLoop=1;jettySize=auto;html=1;exitX=1.117;exitY=0.164;exitDx=0;exitDy=0;endArrow=classic;endFill=1;exitPerimeter=0;entryX=-0.05;entryY=0.09;entryDx=0;entryDy=0;entryPerimeter=0;" edge="1" parent="1" source="tcRZOluestf5_phuFeX2-17" target="tcRZOluestf5_phuFeX2-21">
          <mxGeometry relative="1" as="geometry">
            <mxPoint x="220" y="140" as="targetPoint" />
          </mxGeometry>
        </mxCell>
        <mxCell id="tcRZOluestf5_phuFeX2-17" value="" style="rounded=0;whiteSpace=wrap;html=1;" vertex="1" parent="1">
          <mxGeometry x="80" y="110" width="10" height="230" as="geometry" />
        </mxCell>
        <mxCell id="tcRZOluestf5_phuFeX2-19" value="&lt;div&gt;&lt;br&gt;&lt;/div&gt;&lt;div&gt;&lt;br&gt;&lt;/div&gt;" style="text;html=1;align=center;verticalAlign=middle;resizable=0;points=[];autosize=1;strokeColor=none;fillColor=none;" vertex="1" parent="1">
          <mxGeometry x="70" y="-5" width="20" height="40" as="geometry" />
        </mxCell>
        <mxCell id="tcRZOluestf5_phuFeX2-22" value="" style="endArrow=none;dashed=1;html=1;dashPattern=1 3;strokeWidth=2;rounded=0;" edge="1" parent="1" source="tcRZOluestf5_phuFeX2-74" target="tcRZOluestf5_phuFeX2-21">
          <mxGeometry width="50" height="50" relative="1" as="geometry">
            <mxPoint x="230" y="810" as="sourcePoint" />
            <mxPoint x="229.5" y="94" as="targetPoint" />
          </mxGeometry>
        </mxCell>
        <mxCell id="tcRZOluestf5_phuFeX2-21" value="" style="rounded=0;whiteSpace=wrap;html=1;" vertex="1" parent="1">
          <mxGeometry x="225" y="100" width="10" height="520" as="geometry" />
        </mxCell>
        <mxCell id="tcRZOluestf5_phuFeX2-24" value="klickt auf neuesTodo()" style="text;html=1;align=center;verticalAlign=middle;resizable=0;points=[];autosize=1;strokeColor=none;fillColor=none;" vertex="1" parent="1">
          <mxGeometry x="85" y="110" width="140" height="30" as="geometry" />
        </mxCell>
        <mxCell id="tcRZOluestf5_phuFeX2-26" value="" style="endArrow=none;dashed=1;html=1;dashPattern=1 3;strokeWidth=2;rounded=0;entryX=0.5;entryY=1;entryDx=0;entryDy=0;" edge="1" parent="1" source="tcRZOluestf5_phuFeX2-54" target="tcRZOluestf5_phuFeX2-25">
          <mxGeometry width="50" height="50" relative="1" as="geometry">
            <mxPoint x="414" y="510" as="sourcePoint" />
            <mxPoint x="413.5" y="94" as="targetPoint" />
          </mxGeometry>
        </mxCell>
        <mxCell id="tcRZOluestf5_phuFeX2-25" value="" style="rounded=0;whiteSpace=wrap;html=1;" vertex="1" parent="1">
          <mxGeometry x="409" y="150" width="10" height="320" as="geometry" />
        </mxCell>
        <mxCell id="tcRZOluestf5_phuFeX2-27" style="edgeStyle=orthogonalEdgeStyle;rounded=0;orthogonalLoop=1;jettySize=auto;html=1;endArrow=classic;endFill=1;" edge="1" parent="1">
          <mxGeometry relative="1" as="geometry">
            <mxPoint x="240" y="155" as="sourcePoint" />
            <mxPoint x="410" y="155" as="targetPoint" />
          </mxGeometry>
        </mxCell>
        <mxCell id="tcRZOluestf5_phuFeX2-31" value="actNewTodo()" style="text;html=1;align=center;verticalAlign=middle;resizable=0;points=[];autosize=1;strokeColor=none;fillColor=none;" vertex="1" parent="1">
          <mxGeometry x="260" y="128" width="100" height="30" as="geometry" />
        </mxCell>
        <mxCell id="tcRZOluestf5_phuFeX2-32" style="edgeStyle=orthogonalEdgeStyle;rounded=0;orthogonalLoop=1;jettySize=auto;html=1;exitX=1;exitY=0.5;exitDx=0;exitDy=0;entryX=-0.117;entryY=0.634;entryDx=0;entryDy=0;entryPerimeter=0;endArrow=open;endFill=0;" edge="1" parent="1">
          <mxGeometry relative="1" as="geometry">
            <mxPoint x="91.17" y="260" as="sourcePoint" />
            <mxPoint x="408.99999999999994" y="260.34799999999996" as="targetPoint" />
          </mxGeometry>
        </mxCell>
        <mxCell id="tcRZOluestf5_phuFeX2-33" value="klickt auf newSubmit()" style="text;html=1;align=center;verticalAlign=middle;resizable=0;points=[];autosize=1;strokeColor=none;fillColor=none;" vertex="1" parent="1">
          <mxGeometry x="85" y="230" width="140" height="30" as="geometry" />
        </mxCell>
        <mxCell id="tcRZOluestf5_phuFeX2-34" style="edgeStyle=orthogonalEdgeStyle;rounded=0;orthogonalLoop=1;jettySize=auto;html=1;exitX=0;exitY=0.25;exitDx=0;exitDy=0;entryX=1.2;entryY=0.295;entryDx=0;entryDy=0;entryPerimeter=0;dashed=1;endArrow=open;endFill=0;" edge="1" parent="1">
          <mxGeometry relative="1" as="geometry">
            <mxPoint x="407" y="195.07" as="sourcePoint" />
            <mxPoint x="90" y="194.42000000000002" as="targetPoint" />
          </mxGeometry>
        </mxCell>
        <mxCell id="tcRZOluestf5_phuFeX2-35" value="todopupFenster" style="text;html=1;align=center;verticalAlign=middle;resizable=0;points=[];autosize=1;strokeColor=none;fillColor=none;" vertex="1" parent="1">
          <mxGeometry x="299" y="194" width="110" height="30" as="geometry" />
        </mxCell>
        <mxCell id="tcRZOluestf5_phuFeX2-37" style="edgeStyle=orthogonalEdgeStyle;rounded=0;orthogonalLoop=1;jettySize=auto;html=1;endArrow=open;endFill=0;exitX=1.217;exitY=0.428;exitDx=0;exitDy=0;entryX=-0.217;entryY=0.029;entryDx=0;entryDy=0;entryPerimeter=0;exitPerimeter=0;" edge="1" parent="1" source="tcRZOluestf5_phuFeX2-25" target="tcRZOluestf5_phuFeX2-36">
          <mxGeometry relative="1" as="geometry">
            <mxPoint x="419" y="280" as="sourcePoint" />
            <mxPoint x="590" y="290" as="targetPoint" />
          </mxGeometry>
        </mxCell>
        <mxCell id="tcRZOluestf5_phuFeX2-38" value="" style="endArrow=none;dashed=1;html=1;dashPattern=1 3;strokeWidth=2;rounded=0;" edge="1" parent="1" target="tcRZOluestf5_phuFeX2-36">
          <mxGeometry width="50" height="50" relative="1" as="geometry">
            <mxPoint x="600" y="510" as="sourcePoint" />
            <mxPoint x="600" y="100" as="targetPoint" />
          </mxGeometry>
        </mxCell>
        <mxCell id="tcRZOluestf5_phuFeX2-48" style="edgeStyle=orthogonalEdgeStyle;rounded=0;orthogonalLoop=1;jettySize=auto;html=1;entryX=0;entryY=0.75;entryDx=0;entryDy=0;" edge="1" parent="1">
          <mxGeometry relative="1" as="geometry">
            <mxPoint x="612" y="370" as="sourcePoint" />
            <mxPoint x="767" y="370" as="targetPoint" />
            <Array as="points">
              <mxPoint x="605" y="370" />
            </Array>
          </mxGeometry>
        </mxCell>
        <mxCell id="tcRZOluestf5_phuFeX2-69" style="edgeStyle=orthogonalEdgeStyle;rounded=0;orthogonalLoop=1;jettySize=auto;html=1;exitX=1;exitY=0.75;exitDx=0;exitDy=0;entryX=1.283;entryY=0.823;entryDx=0;entryDy=0;entryPerimeter=0;endArrow=open;endFill=0;" edge="1" parent="1" source="tcRZOluestf5_phuFeX2-36" target="tcRZOluestf5_phuFeX2-36">
          <mxGeometry relative="1" as="geometry">
            <mxPoint x="630" y="470" as="targetPoint" />
            <Array as="points">
              <mxPoint x="630" y="438" />
              <mxPoint x="630" y="453" />
            </Array>
          </mxGeometry>
        </mxCell>
        <mxCell id="tcRZOluestf5_phuFeX2-36" value="" style="rounded=0;whiteSpace=wrap;html=1;" vertex="1" parent="1">
          <mxGeometry x="595" y="280" width="10" height="210" as="geometry" />
        </mxCell>
        <mxCell id="tcRZOluestf5_phuFeX2-40" value="createToDo()" style="text;html=1;align=center;verticalAlign=middle;resizable=0;points=[];autosize=1;strokeColor=none;fillColor=none;" vertex="1" parent="1">
          <mxGeometry x="419" y="260" width="90" height="30" as="geometry" />
        </mxCell>
        <mxCell id="tcRZOluestf5_phuFeX2-44" value="&lt;div style=&quot;text-align: justify;&quot;&gt;&lt;span style=&quot;background-color: initial;&quot;&gt;setUseriD()&lt;/span&gt;&lt;/div&gt;&lt;div style=&quot;text-align: justify;&quot;&gt;&lt;span style=&quot;background-color: initial;&quot;&gt;setTitle()&lt;/span&gt;&lt;/div&gt;&lt;div style=&quot;text-align: justify;&quot;&gt;&lt;span style=&quot;background-color: initial;&quot;&gt;setDescription()&lt;/span&gt;&lt;/div&gt;&lt;div style=&quot;text-align: justify;&quot;&gt;set day()&lt;/div&gt;&lt;div style=&quot;text-align: justify;&quot;&gt;set categoryID()&lt;/div&gt;&lt;div style=&quot;text-align: justify;&quot;&gt;set priority()&lt;/div&gt;" style="text;html=1;align=center;verticalAlign=middle;resizable=0;points=[];autosize=1;strokeColor=none;fillColor=none;" vertex="1" parent="1">
          <mxGeometry x="620" y="230" width="110" height="100" as="geometry" />
        </mxCell>
        <mxCell id="tcRZOluestf5_phuFeX2-46" value="" style="rounded=0;whiteSpace=wrap;html=1;" vertex="1" parent="1">
          <mxGeometry x="765" y="102" width="10" height="388" as="geometry" />
        </mxCell>
        <mxCell id="tcRZOluestf5_phuFeX2-47" style="edgeStyle=orthogonalEdgeStyle;rounded=0;orthogonalLoop=1;jettySize=auto;html=1;endArrow=open;endFill=0;exitX=1;exitY=0;exitDx=0;exitDy=0;" edge="1" parent="1" source="tcRZOluestf5_phuFeX2-36">
          <mxGeometry relative="1" as="geometry">
            <mxPoint x="605" y="250" as="sourcePoint" />
            <mxPoint x="605" y="325" as="targetPoint" />
            <Array as="points">
              <mxPoint x="605" y="290" />
              <mxPoint x="625" y="290" />
              <mxPoint x="625" y="325" />
            </Array>
          </mxGeometry>
        </mxCell>
        <mxCell id="tcRZOluestf5_phuFeX2-49" value="setNewToDo()" style="text;html=1;align=center;verticalAlign=middle;resizable=0;points=[];autosize=1;strokeColor=none;fillColor=none;" vertex="1" parent="1">
          <mxGeometry x="605" y="340" width="100" height="30" as="geometry" />
        </mxCell>
        <mxCell id="tcRZOluestf5_phuFeX2-50" style="edgeStyle=orthogonalEdgeStyle;rounded=0;orthogonalLoop=1;jettySize=auto;html=1;exitX=0;exitY=0.75;exitDx=0;exitDy=0;entryX=1.033;entryY=0.899;entryDx=0;entryDy=0;entryPerimeter=0;dashed=1;endArrow=open;endFill=0;" edge="1" parent="1">
          <mxGeometry relative="1" as="geometry">
            <mxPoint x="764.67" y="400.17" as="sourcePoint" />
            <mxPoint x="604.9999999999999" y="399.99999999999994" as="targetPoint" />
          </mxGeometry>
        </mxCell>
        <mxCell id="tcRZOluestf5_phuFeX2-51" value="ToDoID()" style="text;html=1;align=center;verticalAlign=middle;resizable=0;points=[];autosize=1;strokeColor=none;fillColor=none;" vertex="1" parent="1">
          <mxGeometry x="645" y="398" width="70" height="30" as="geometry" />
        </mxCell>
        <mxCell id="tcRZOluestf5_phuFeX2-52" style="edgeStyle=orthogonalEdgeStyle;rounded=0;orthogonalLoop=1;jettySize=auto;html=1;exitX=1;exitY=0.75;exitDx=0;exitDy=0;entryX=-0.283;entryY=0.691;entryDx=0;entryDy=0;entryPerimeter=0;endArrow=open;endFill=0;" edge="1" parent="1">
          <mxGeometry relative="1" as="geometry">
            <mxPoint x="235" y="460" as="sourcePoint" />
            <mxPoint x="406.1700000000001" y="460.39" as="targetPoint" />
          </mxGeometry>
        </mxCell>
        <mxCell id="tcRZOluestf5_phuFeX2-53" value="closePopUp" style="text;html=1;align=center;verticalAlign=middle;resizable=0;points=[];autosize=1;strokeColor=none;fillColor=none;" vertex="1" parent="1">
          <mxGeometry x="235" y="428" width="90" height="30" as="geometry" />
        </mxCell>
        <mxCell id="tcRZOluestf5_phuFeX2-56" value="alt" style="shape=umlFrame;whiteSpace=wrap;html=1;pointerEvents=0;" vertex="1" parent="1">
          <mxGeometry x="140" y="520" width="330" height="240" as="geometry" />
        </mxCell>
        <mxCell id="tcRZOluestf5_phuFeX2-58" value="[todo.getDay == heute]" style="text;html=1;align=center;verticalAlign=middle;resizable=0;points=[];autosize=1;strokeColor=none;fillColor=none;" vertex="1" parent="1">
          <mxGeometry x="245" y="520" width="150" height="30" as="geometry" />
        </mxCell>
        <mxCell id="tcRZOluestf5_phuFeX2-59" style="edgeStyle=orthogonalEdgeStyle;rounded=0;orthogonalLoop=1;jettySize=auto;html=1;entryX=1.2;entryY=0.954;entryDx=0;entryDy=0;entryPerimeter=0;endArrow=open;endFill=0;" edge="1" parent="1" target="tcRZOluestf5_phuFeX2-21">
          <mxGeometry relative="1" as="geometry">
            <mxPoint x="235" y="560" as="sourcePoint" />
            <Array as="points">
              <mxPoint x="260" y="560" />
              <mxPoint x="260" y="596" />
            </Array>
          </mxGeometry>
        </mxCell>
        <mxCell id="tcRZOluestf5_phuFeX2-61" value="VBoxHeute.addChildren(task)" style="text;html=1;align=center;verticalAlign=middle;resizable=0;points=[];autosize=1;strokeColor=none;fillColor=none;" vertex="1" parent="1">
          <mxGeometry x="260" y="560" width="180" height="30" as="geometry" />
        </mxCell>
        <mxCell id="tcRZOluestf5_phuFeX2-62" value="" style="endArrow=none;dashed=1;html=1;dashPattern=1 3;strokeWidth=2;rounded=0;exitX=0.002;exitY=0.501;exitDx=0;exitDy=0;exitPerimeter=0;" edge="1" parent="1">
          <mxGeometry width="50" height="50" relative="1" as="geometry">
            <mxPoint x="138.69999999999996" y="641.2" as="sourcePoint" />
            <mxPoint x="470" y="641" as="targetPoint" />
          </mxGeometry>
        </mxCell>
        <mxCell id="tcRZOluestf5_phuFeX2-63" value="[else]" style="text;html=1;align=center;verticalAlign=middle;resizable=0;points=[];autosize=1;strokeColor=none;fillColor=none;" vertex="1" parent="1">
          <mxGeometry x="145" y="638" width="50" height="30" as="geometry" />
        </mxCell>
        <mxCell id="tcRZOluestf5_phuFeX2-64" value="" style="rounded=0;whiteSpace=wrap;html=1;" vertex="1" parent="1">
          <mxGeometry x="225" y="640" width="10" height="107" as="geometry" />
        </mxCell>
        <mxCell id="tcRZOluestf5_phuFeX2-66" style="edgeStyle=orthogonalEdgeStyle;rounded=0;orthogonalLoop=1;jettySize=auto;html=1;exitX=1;exitY=0.25;exitDx=0;exitDy=0;entryX=1.45;entryY=0.704;entryDx=0;entryDy=0;entryPerimeter=0;endArrow=open;endFill=0;" edge="1" parent="1" source="tcRZOluestf5_phuFeX2-64" target="tcRZOluestf5_phuFeX2-64">
          <mxGeometry relative="1" as="geometry">
            <Array as="points">
              <mxPoint x="235" y="682" />
              <mxPoint x="260" y="682" />
              <mxPoint x="260" y="715" />
            </Array>
          </mxGeometry>
        </mxCell>
        <mxCell id="tcRZOluestf5_phuFeX2-67" value="VBoxOther.addChildren(task)" style="text;html=1;align=center;verticalAlign=middle;resizable=0;points=[];autosize=1;strokeColor=none;fillColor=none;" vertex="1" parent="1">
          <mxGeometry x="260" y="680" width="180" height="30" as="geometry" />
        </mxCell>
        <mxCell id="tcRZOluestf5_phuFeX2-70" value="setToDoID" style="text;html=1;align=center;verticalAlign=middle;resizable=0;points=[];autosize=1;strokeColor=none;fillColor=none;" vertex="1" parent="1">
          <mxGeometry x="620" y="440" width="80" height="30" as="geometry" />
        </mxCell>
        <mxCell id="tcRZOluestf5_phuFeX2-73" value="" style="endArrow=none;dashed=1;html=1;dashPattern=1 3;strokeWidth=2;rounded=0;entryX=0.5;entryY=1;entryDx=0;entryDy=0;" edge="1" parent="1" target="tcRZOluestf5_phuFeX2-54">
          <mxGeometry width="50" height="50" relative="1" as="geometry">
            <mxPoint x="414" y="510" as="sourcePoint" />
            <mxPoint x="414" y="440" as="targetPoint" />
          </mxGeometry>
        </mxCell>
        <mxCell id="tcRZOluestf5_phuFeX2-54" value="" style="shape=umlDestroy;whiteSpace=wrap;html=1;strokeWidth=3;targetShapes=umlLifeline;" vertex="1" parent="1">
          <mxGeometry x="399" y="480" width="30" height="30" as="geometry" />
        </mxCell>
        <mxCell id="tcRZOluestf5_phuFeX2-75" value="" style="endArrow=none;dashed=1;html=1;dashPattern=1 3;strokeWidth=2;rounded=0;" edge="1" parent="1" target="tcRZOluestf5_phuFeX2-74">
          <mxGeometry width="50" height="50" relative="1" as="geometry">
            <mxPoint x="230" y="810" as="sourcePoint" />
            <mxPoint x="230" y="620" as="targetPoint" />
          </mxGeometry>
        </mxCell>
        <mxCell id="tcRZOluestf5_phuFeX2-74" value="" style="rounded=0;whiteSpace=wrap;html=1;" vertex="1" parent="1">
          <mxGeometry x="225" y="760" width="10" height="30" as="geometry" />
        </mxCell>
        <mxCell id="tcRZOluestf5_phuFeX2-77" value="&lt;span style=&quot;text-wrap: nowrap;&quot;&gt;sd: Neues Todo erstellen&lt;/span&gt;" style="shape=umlFrame;whiteSpace=wrap;html=1;pointerEvents=0;width=150;height=30;" vertex="1" parent="1">
          <mxGeometry x="-1" y="-10" width="921" height="830" as="geometry" />
        </mxCell>
      </root>
    </mxGraphModel>
  </diagram>
</mxfile>
